<svg width="46" height="29" viewBox="0 0 46 29" fill="none" xmlns="http://www.w3.org/2000/svg">
<path d="M23 26.4872C31.8559 26.4872 39.5573 21.5782 43.5024 14.3472C41.5025 10.6746 38.5415 7.60753 34.9325 5.47054C31.3234 3.33354 27.2006 2.20604 23 2.20727C18.7994 2.20604 14.6766 3.33354 11.0675 5.47054C7.45849 7.60753 4.49745 10.6746 2.49759 14.3472C4.49745 18.0199 7.45849 21.0869 11.0675 23.2239C14.6766 25.3609 18.7994 26.4884 23 26.4872ZM23 1.4172e-06C27.8029 -0.00159396 32.5089 1.34382 36.5774 3.8817C40.6458 6.41957 43.9118 10.047 46 14.3472C43.9118 18.6475 40.6458 22.2749 36.5774 24.8128C32.5089 27.3507 27.8029 28.6961 23 28.6945C18.1971 28.6961 13.4911 27.3507 9.42262 24.8128C5.35416 22.2749 2.08823 18.6475 0 14.3472C2.08823 10.047 5.35416 6.41957 9.42262 3.8817C13.4911 1.34382 18.1971 -0.00159396 23 1.4172e-06ZM23 4.41454C25.6496 4.41454 28.1907 5.46101 30.0642 7.32376C31.9378 9.1865 32.9903 11.7129 32.9903 14.3472C32.9903 16.9816 31.9378 19.508 30.0642 21.3707C28.1907 23.2335 25.6496 24.2799 23 24.2799C20.3504 24.2799 17.8093 23.2335 15.9358 21.3707C14.0622 19.508 13.0097 16.9816 13.0097 14.3472C13.0097 11.7129 14.0622 9.1865 15.9358 7.32376C17.8093 5.46101 20.3504 4.41454 23 4.41454ZM23 6.6218C20.9392 6.6218 18.9628 7.43573 17.5056 8.88453C16.0484 10.3333 15.2297 12.2983 15.2297 14.3472C15.2297 16.3961 16.0484 18.3611 17.5056 19.8099C18.9628 21.2587 20.9392 22.0727 23 22.0727C25.0608 22.0727 27.0372 21.2587 28.4944 19.8099C29.9516 18.3611 30.7703 16.3961 30.7703 14.3472C30.7703 12.2983 29.9516 10.3333 28.4944 8.88453C27.0372 7.43573 25.0608 6.6218 23 6.6218Z" fill="#7B4218"/>
</svg>
