<svg width="202" height="43" viewBox="0 0 202 43" fill="none" xmlns="http://www.w3.org/2000/svg">
<g filter="url(#filter0_f_51703_385)">
<path d="M14.481 10.2266V28H10.8311V10.2266H14.481Z" fill="#DECFC4"/>
</g>
<g filter="url(#filter1_f_51703_385)">
<path d="M26.0129 19.4812C35.1064 19.4975 43.8018 19.513 47.0128 19.5187M47.0128 19.5187L39.6789 26.7056M47.0128 19.5187L39.7046 12.3057" stroke="#DECFC4"/>
</g>
<g filter="url(#filter2_f_51703_385)">
<path d="M66.9153 22.104H70.5652C70.492 23.3003 70.1624 24.3623 69.5765 25.29C68.9987 26.2178 68.1889 26.9421 67.1473 27.4629C66.1137 27.9837 64.8686 28.2441 63.4119 28.2441C62.2726 28.2441 61.2513 28.0488 60.348 27.6582C59.4446 27.2594 58.6715 26.6898 58.0286 25.9492C57.3939 25.2087 56.9096 24.3135 56.576 23.2637C56.2423 22.2139 56.0755 21.0379 56.0755 19.7358V18.5029C56.0755 17.2008 56.2464 16.0249 56.5882 14.9751C56.9381 13.9172 57.4345 13.0179 58.0775 12.2773C58.7285 11.5368 59.5057 10.9671 60.409 10.5684C61.3123 10.1696 62.3214 9.97021 63.4363 9.97021C64.9175 9.97021 66.1666 10.2388 67.1839 10.7759C68.2093 11.313 69.0027 12.0535 69.5643 12.9976C70.1339 13.9416 70.4757 15.0158 70.5897 16.2202H66.9276C66.8869 15.5041 66.7444 14.8978 66.5003 14.4014C66.2562 13.8968 65.8859 13.5184 65.3895 13.2661C64.9012 13.0057 64.2501 12.8755 63.4363 12.8755C62.826 12.8755 62.2929 12.9894 61.8372 13.2173C61.3815 13.4451 60.999 13.791 60.6898 14.2549C60.3805 14.7188 60.1486 15.3047 59.994 16.0127C59.8475 16.7126 59.7742 17.5345 59.7742 18.4785V19.7358C59.7742 20.6554 59.8434 21.4652 59.9818 22.165C60.1201 22.8568 60.3317 23.4427 60.6165 23.9229C60.9095 24.3949 61.2838 24.7529 61.7396 24.9971C62.2034 25.2331 62.7609 25.3511 63.4119 25.3511C64.1769 25.3511 64.8076 25.229 65.304 24.9849C65.8004 24.7407 66.1789 24.3786 66.4393 23.8984C66.7078 23.4183 66.8665 22.8201 66.9153 22.104ZM81.4466 13.2661L76.6126 28H72.7186L79.3226 10.2266H81.8006L81.4466 13.2661ZM85.4627 28L80.6165 13.2661L80.2259 10.2266H82.7283L89.369 28H85.4627ZM85.243 21.3838V24.2524H75.8558V21.3838H85.243ZM106.732 10.2266V28H103.07L95.929 16.0859V28H92.2669V10.2266H95.929L103.082 22.1528V10.2266H106.732Z" fill="#DECFC4"/>
</g>
<path d="M117.039 19.4812C126.132 19.4975 134.827 19.513 138.038 19.5187M138.038 19.5187L130.705 26.7056M138.038 19.5187L130.73 12.3057" stroke="#DECFC4"/>
<g filter="url(#filter3_d_51703_385)">
<path d="M156.891 23.3491C156.891 23.0317 156.842 22.7469 156.745 22.4946C156.655 22.2342 156.484 21.9982 156.232 21.7866C155.98 21.5669 155.626 21.3512 155.17 21.1396C154.714 20.9281 154.124 20.7083 153.4 20.4805C152.594 20.2201 151.829 19.9271 151.105 19.6016C150.389 19.276 149.754 18.8976 149.201 18.4663C148.655 18.0269 148.224 17.5182 147.907 16.9404C147.598 16.3626 147.443 15.6912 147.443 14.9263C147.443 14.1857 147.606 13.5143 147.931 12.9121C148.257 12.3018 148.712 11.7809 149.298 11.3496C149.884 10.9102 150.576 10.5724 151.374 10.3364C152.179 10.1004 153.062 9.98242 154.023 9.98242C155.333 9.98242 156.476 10.2184 157.453 10.6904C158.429 11.1624 159.186 11.8094 159.723 12.6313C160.268 13.4533 160.541 14.3932 160.541 15.4512H156.903C156.903 14.9303 156.794 14.4746 156.574 14.084C156.362 13.6852 156.037 13.3719 155.597 13.144C155.166 12.9162 154.621 12.8022 153.961 12.8022C153.327 12.8022 152.798 12.8999 152.375 13.0952C151.951 13.2824 151.634 13.5387 151.422 13.8643C151.211 14.1816 151.105 14.5397 151.105 14.9385C151.105 15.2396 151.178 15.5122 151.325 15.7563C151.479 16.0005 151.707 16.2284 152.008 16.4399C152.309 16.6515 152.68 16.8509 153.119 17.0381C153.559 17.2253 154.067 17.4084 154.645 17.5874C155.614 17.8804 156.464 18.21 157.196 18.5762C157.937 18.9424 158.555 19.3534 159.052 19.8091C159.548 20.2648 159.923 20.7816 160.175 21.3594C160.427 21.9372 160.553 22.5923 160.553 23.3247C160.553 24.0978 160.403 24.7896 160.102 25.3999C159.801 26.0103 159.365 26.527 158.795 26.9502C158.226 27.3734 157.546 27.6948 156.757 27.9146C155.968 28.1343 155.085 28.2441 154.108 28.2441C153.229 28.2441 152.362 28.1302 151.508 27.9023C150.653 27.6663 149.876 27.3123 149.176 26.8403C148.485 26.3683 147.931 25.7661 147.516 25.0337C147.101 24.3013 146.894 23.4346 146.894 22.4336H150.568C150.568 22.987 150.653 23.4549 150.824 23.8374C150.995 24.2199 151.235 24.5291 151.544 24.7651C151.862 25.0011 152.236 25.172 152.668 25.2778C153.107 25.3836 153.587 25.4365 154.108 25.4365C154.743 25.4365 155.264 25.347 155.67 25.168C156.086 24.9889 156.391 24.7407 156.586 24.4233C156.789 24.106 156.891 23.7479 156.891 23.3491ZM176.22 25.1436V28H166.759V25.1436H176.22ZM167.956 10.2266V28H164.294V10.2266H167.956ZM174.987 17.4653V20.2485H166.759V17.4653H174.987ZM176.208 10.2266V13.0952H166.759V10.2266H176.208ZM191.532 25.1436V28H182.072V25.1436H191.532ZM183.268 10.2266V28H179.606V10.2266H183.268ZM190.299 17.4653V20.2485H182.072V17.4653H190.299ZM191.52 10.2266V13.0952H182.072V10.2266H191.52Z" fill="#DECFC4"/>
</g>
<defs>
<filter id="filter0_f_51703_385" x="0.831055" y="0.226562" width="23.6499" height="37.7734" filterUnits="userSpaceOnUse" color-interpolation-filters="sRGB">
<feFlood flood-opacity="0" result="BackgroundImageFix"/>
<feBlend mode="normal" in="SourceGraphic" in2="BackgroundImageFix" result="shape"/>
<feGaussianBlur stdDeviation="5" result="effect1_foregroundBlur_51703_385"/>
</filter>
<filter id="filter1_f_51703_385" x="22.012" y="7.94983" width="29.7139" height="23.1129" filterUnits="userSpaceOnUse" color-interpolation-filters="sRGB">
<feFlood flood-opacity="0" result="BackgroundImageFix"/>
<feBlend mode="normal" in="SourceGraphic" in2="BackgroundImageFix" result="shape"/>
<feGaussianBlur stdDeviation="2" result="effect1_foregroundBlur_51703_385"/>
</filter>
<filter id="filter2_f_51703_385" x="51.0755" y="4.97021" width="60.6567" height="28.2739" filterUnits="userSpaceOnUse" color-interpolation-filters="sRGB">
<feFlood flood-opacity="0" result="BackgroundImageFix"/>
<feBlend mode="normal" in="SourceGraphic" in2="BackgroundImageFix" result="shape"/>
<feGaussianBlur stdDeviation="2.5" result="effect1_foregroundBlur_51703_385"/>
</filter>
<filter id="filter3_d_51703_385" x="136.894" y="3.98242" width="64.6387" height="38.2617" filterUnits="userSpaceOnUse" color-interpolation-filters="sRGB">
<feFlood flood-opacity="0" result="BackgroundImageFix"/>
<feColorMatrix in="SourceAlpha" type="matrix" values="0 0 0 0 0 0 0 0 0 0 0 0 0 0 0 0 0 0 127 0" result="hardAlpha"/>
<feOffset dy="4"/>
<feGaussianBlur stdDeviation="5"/>
<feComposite in2="hardAlpha" operator="out"/>
<feColorMatrix type="matrix" values="0 0 0 0 0 0 0 0 0 0 0 0 0 0 0 0 0 0 0.25 0"/>
<feBlend mode="normal" in2="BackgroundImageFix" result="effect1_dropShadow_51703_385"/>
<feBlend mode="normal" in="SourceGraphic" in2="effect1_dropShadow_51703_385" result="shape"/>
</filter>
</defs>
</svg>
